<mxfile host="www.draw.io" modified="2019-11-15T09:01:15.954Z" agent="Mozilla/5.0 (Windows NT 10.0; Win64; x64) AppleWebKit/537.36 (KHTML, like Gecko) Chrome/78.0.3904.97 Safari/537.36" etag="xeol0NBS1DPTGr7YgCUv" version="12.2.6" type="github" pages="1">
  <diagram id="F8csgFQ28k9AdxXkPYOd" name="Page-1">
    <mxGraphModel dx="1024" dy="566" grid="1" gridSize="10" guides="1" tooltips="1" connect="1" arrows="1" fold="1" page="1" pageScale="1" pageWidth="850" pageHeight="1100" math="0" shadow="0">
      <root>
        <mxCell id="0"/>
        <mxCell id="1" parent="0"/>
        <mxCell id="IhwnSRoTiVn1C7rwpKkE-1" value="Buzzers" style="strokeWidth=1;shadow=0;dashed=0;align=center;html=1;shape=mxgraph.mockup.containers.window;align=left;verticalAlign=top;spacingLeft=8;strokeColor2=#008cff;strokeColor3=#c4c4c4;fontColor=#666666;mainText=;fontSize=17;labelBackgroundColor=none;" vertex="1" parent="1">
          <mxGeometry x="40" y="40" width="550" height="380" as="geometry"/>
        </mxCell>
        <mxCell id="IhwnSRoTiVn1C7rwpKkE-2" value="" style="strokeWidth=1;shadow=0;dashed=0;align=center;html=1;shape=mxgraph.mockup.forms.rrect;rSize=0;strokeColor=#999999;fillColor=#ffffff;recursiveResize=0;" vertex="1" parent="1">
          <mxGeometry x="80" y="110" width="150" height="60" as="geometry"/>
        </mxCell>
        <mxCell id="IhwnSRoTiVn1C7rwpKkE-3" value="Female" style="strokeWidth=1;shadow=0;dashed=0;align=center;html=1;shape=mxgraph.mockup.forms.rrect;rSize=0;fillColor=#eeeeee;strokeColor=#999999;gradientColor=#cccccc;align=left;spacingLeft=4;fontSize=17;fontColor=#666666;labelPosition=right;" vertex="1" parent="IhwnSRoTiVn1C7rwpKkE-2">
          <mxGeometry x="8" y="7.5" width="15" height="15" as="geometry"/>
        </mxCell>
        <mxCell id="IhwnSRoTiVn1C7rwpKkE-4" value="Male" style="strokeWidth=1;shadow=0;dashed=0;align=center;html=1;shape=mxgraph.mockup.forms.rrect;rSize=0;fillColor=#eeeeee;strokeColor=#999999;gradientColor=#cccccc;align=left;spacingLeft=4;fontSize=17;fontColor=#666666;labelPosition=right;" vertex="1" parent="IhwnSRoTiVn1C7rwpKkE-2">
          <mxGeometry x="8" y="37.5" width="15" height="15" as="geometry"/>
        </mxCell>
      </root>
    </mxGraphModel>
  </diagram>
</mxfile>
